<svg width="64" height="64" xmlns="http://www.w3.org/2000/svg" baseProfile="basic" clip-rule="evenodd" fill-rule="evenodd">
 <defs>
  <linearGradient y2="0" y1="1" x2="0.5" x1="0.5" id="pDfaAY9W9koD08vjt1jLib">
   <stop stop-color="#155cde" offset="0"/>
   <stop stop-color="#1f7fe5" offset="0.278"/>
   <stop stop-color="#279ceb" offset="0.569"/>
   <stop stop-color="#2cafef" offset="0.82"/>
   <stop stop-color="#2eb5f0" offset="1"/>
  </linearGradient>
  <linearGradient y2="-0.32201" y1="1.5323" x2="0.5" x1="0.5" id="pDfaAY9W9koD08vjt1jLid">
   <stop stop-color="#41bfec" offset="0"/>
   <stop stop-color="#4cc5ef" offset="0.232"/>
   <stop stop-color="#6bd4f6" offset="0.644"/>
   <stop stop-color="#8ae4fd" offset="1"/>
  </linearGradient>
  <linearGradient y2="-0.28785" y1="1.4093" x2="0.5" x1="0.5" id="pDfaAY9W9koD08vjt1jLie">
   <stop stop-color="#155cde" offset="0"/>
   <stop stop-color="#1f7fe5" offset="0.278"/>
   <stop stop-color="#279ceb" offset="0.569"/>
   <stop stop-color="#2cafef" offset="0.82"/>
   <stop stop-color="#2eb5f0" offset="1"/>
  </linearGradient>
  <linearGradient y2="-0.11775" y1="1.79624" x2="0.5" x1="0.5" id="pDfaAY9W9koD08vjt1jLif">
   <stop stop-color="#dbdee1" offset="0"/>
   <stop stop-color="#f5f6f7" offset="1"/>
  </linearGradient>
 </defs>
 <g>
  <title>Layer 1</title>
  <path id="svg_2" clip-rule="evenodd" d="m49.98,56l-39.55,0c-1.9,0 -3.43,-1.5 -3.43,-3.35l0,-24.96c0,-1.85 1.53,-3.35 3.43,-3.35l8.48,0l0.51,6.72l30.56,24.94z" fill-rule="evenodd" fill="url(#pDfaAY9W9koD08vjt1jLib)"/>
  <path id="svg_3" clip-rule="evenodd" d="m57,27.69l0,24.96c0,0.69 -0.21,1.33 -0.58,1.87c-0.12,0.18 -0.26,0.35 -0.42,0.5c-0.07,0.08 -0.15,0.15 -0.24,0.21c-0.13,0.1 -0.26,0.2 -0.4,0.28c0,0 0,0.01 -0.01,0.01c-0.43,0.24 -0.91,0.41 -1.43,0.46c-0.09,0.02 -0.19,0.02 -0.28,0.02l-3.66,0l-30.56,-24.94l-0.51,-6.72l34.73,0c0.09,0 0.19,0 0.28,0.02c0.52,0.05 1,0.22 1.43,0.46c0.01,0 0.01,0.01 0.01,0.01c0.14,0.08 0.27,0.18 0.4,0.28c0.09,0.06 0.17,0.13 0.24,0.21c0.16,0.15 0.3,0.32 0.42,0.5c0.37,0.54 0.58,1.18 0.58,1.87z" fill-rule="evenodd" fill="#0d47a1"/>
  <path id="svg_4" clip-rule="evenodd" d="m53.92,55.98c0.7,-0.07 1.33,-0.34 1.84,-0.75c-0.51,0.43 -1.15,0.7 -1.84,0.75z" fill-rule="evenodd" fill="#417fea"/>
  <path id="svg_5" clip-rule="evenodd" d="m53.92,24.36c0.69,0.05 1.33,0.32 1.84,0.75c-0.51,-0.41 -1.14,-0.68 -1.84,-0.75z" fill-rule="evenodd" fill="#417fea"/>
  <path id="svg_6" clip-rule="evenodd" d="m17.72,31.03l-3.51,0c-0.3,0 -0.55,0.25 -0.55,0.55l0,3.5c0,0.3 0.25,0.55 0.55,0.55l3.51,0c0.3,0 0.55,-0.25 0.55,-0.55l0,-3.5c0,-0.3 -0.25,-0.55 -0.55,-0.55zm3.96,1.87l0,2.18c0,0.3 0.25,0.55 0.55,0.55l2.79,0l-3.34,-2.73zm-3.96,6.07l-3.51,0c-0.3,0 -0.55,0.24 -0.55,0.55l0,3.49c0,0.31 0.25,0.55 0.55,0.55l3.51,0c0.3,0 0.55,-0.24 0.55,-0.55l0,-3.49c0,-0.31 -0.25,-0.55 -0.55,-0.55zm8.02,0l-3.51,0c-0.3,0 -0.55,0.24 -0.55,0.55l0,3.49c0,0.31 0.25,0.55 0.55,0.55l3.51,0c0.3,0 0.55,-0.24 0.55,-0.55l0,-3.49c0,-0.31 -0.25,-0.55 -0.55,-0.55zm3.97,0.48c-0.01,0.02 -0.01,0.05 -0.01,0.07l0,3.49c0,0.31 0.24,0.55 0.55,0.55l3.5,0c0.25,0 0.45,-0.16 0.52,-0.38l-4.56,-3.73zm9.01,7.36l-19.77,0c-0.34,0 -0.63,0.27 -0.63,0.61l0,3.4c0,0.34 0.29,0.61 0.63,0.61l25.43,0l-5.66,-4.62z" fill-rule="evenodd" fill="url(#pDfaAY9W9koD08vjt1jLid)"/>
  <path id="svg_7" clip-rule="evenodd" d="m34.276,43.185l-4.577,-3.734c0.033,-0.271 0.266,-0.484 0.547,-0.484l3.506,0c0.303,0 0.551,0.247 0.551,0.55l0,3.497c0.001,0.059 -0.009,0.117 -0.027,0.171l0,0zm-9.26,-7.556l-3.339,-2.724l0,-1.323c0,-0.302 0.248,-0.55 0.551,-0.55l3.506,0c0.303,0 0.551,0.247 0.551,0.55l0,3.497c0,0.302 -0.248,0.55 -0.551,0.55l-0.718,0zm5.23,-4.597l3.506,0c0.303,0 0.551,0.247 0.551,0.55l0,3.497c0,0.302 -0.248,0.55 -0.551,0.55l-3.506,0c-0.303,0 -0.551,-0.247 -0.551,-0.55l0,-3.497c0,-0.302 0.248,-0.55 0.551,-0.55l0,0zm8.018,0l3.506,0c0.303,0 0.551,0.247 0.551,0.55l0,3.497c0,0.302 -0.248,0.55 -0.551,0.55l-3.506,0c-0.303,0 -0.551,-0.247 -0.551,-0.55l0,-3.497c0,-0.302 0.248,-0.55 0.551,-0.55l0,0zm8.018,0l3.506,0c0.303,0 0.551,0.247 0.551,0.55l0,3.497c0,0.302 -0.248,0.55 -0.551,0.55l-3.506,0c-0.303,0 -0.551,-0.247 -0.551,-0.55l0,-3.497c0,-0.302 0.248,-0.55 0.551,-0.55l0,0zm-8.018,7.935l3.506,0c0.303,0 0.551,0.247 0.551,0.55l0,3.497c0,0.302 -0.248,0.55 -0.551,0.55l-3.506,0c-0.303,0 -0.551,-0.247 -0.551,-0.55l0,-3.497c0,-0.303 0.248,-0.55 0.551,-0.55zm8.018,0l3.506,0c0.303,0 0.551,0.247 0.551,0.55l0,3.497c0,0.302 -0.248,0.55 -0.551,0.55l-3.506,0c-0.303,0 -0.551,-0.247 -0.551,-0.55l0,-3.497c0,-0.303 0.248,-0.55 0.551,-0.55zm-7.562,7.843l6.272,0c0.336,0 0.611,0.274 0.611,0.61l0,3.398c0,0.336 -0.275,0.61 -0.611,0.61l-0.612,0l-5.66,-4.618z" fill-rule="evenodd" fill="url(#pDfaAY9W9koD08vjt1jLie)"/>
  <path id="svg_8" clip-rule="evenodd" d="m19.333,31l12.553,10.252l12.552,-10.266c1.766,-1.36 2.227,-1.997 2.229,-3.653l0,-17.663c-0.033,-2.281 -1.32,-3.593 -3.661,-3.67l-22.132,0c-2.34,0.077 -3.69,1.402 -3.723,3.684l0.015,17.65c0.002,1.656 0.401,2.306 2.167,3.666l0,0z" fill-rule="evenodd" fill="url(#pDfaAY9W9koD08vjt1jLif)"/>
  <text stroke-width="5" opacity="0.9" font-weight="bold" xml:space="preserve" text-anchor="start" font-family="'PingFang SC'" font-size="24" id="svg_13" y="27.99977" x="20.0001" fill="#265fb5">五</text>
 </g>
</svg>